<?xml version="1.0" encoding="UTF-8"?>
<!-- Generated by Pixelmator Pro 3.4.2 -->
<svg width="696" height="294" viewBox="0 0 696 294" xmlns="http://www.w3.org/2000/svg">
    <path id="Path" fill="#d1d5dc" stroke="none" d="M 570.469971 128.029999 C 570.469971 96.940002 590.140015 75.079987 618.119995 75.079987 C 646.099976 75.079987 666.080017 96.929993 666.080017 128.029999 C 666.080017 159.130005 646.099976 179.73999 618.119995 179.73999 C 590.140015 179.73999 570.469971 158.190002 570.469971 128.029999 Z M 541.26001 128.029999 C 541.26001 173.899994 573.23999 206.220001 618.119995 206.220001 C 663 206.220001 695.289978 173.899994 695.289978 128.029999 C 695.289978 82.160004 663.309998 48.609985 618.119995 48.609985 C 572.919983 48.609985 541.26001 81.559998 541.26001 128.029999 Z M 392.140015 50.459991 L 452.400024 204.380005 L 480.690002 204.380005 L 540.950012 50.459991 L 510.51001 50.459991 L 466.849976 169.290009 L 466.22998 169.290009 L 422.570007 50.459991 L 392.140015 50.459991 Z M 275 122.480011 C 276.839996 94.149994 295.600006 75.079987 321.119995 75.079987 C 343.25 75.079987 359.859985 89.23999 362.320007 110.48999 L 311.279999 110.48999 C 293.140015 110.48999 283.299988 112.640015 275.929993 122.5 L 275 122.5 L 275 122.480011 Z M 245.799988 127.100006 C 245.799988 172.970001 278.079987 206.209991 322.660004 206.209991 C 352.790009 206.209991 379.230011 190.820007 390.600006 166.48999 L 366 154.179993 C 357.390015 170.190002 340.790009 179.730011 322.649994 179.730011 C 300.809998 179.730011 281.140015 163.100006 281.140015 147.100006 C 281.140015 138.790009 286.679993 135.089996 294.670013 135.089996 L 392.130005 135.089996 L 392.130005 126.779999 C 392.130005 80.600006 362.619995 48.589996 320.190002 48.589996 C 277.76001 48.589996 245.790009 81.529999 245.790009 127.089996 M 162.169998 204.360016 L 189.839996 204.360016 L 189.839996 109.869995 C 189.839996 89.549988 202.440002 75.079987 219.970001 75.079987 C 227.350006 75.079987 235.029999 77.540009 238.730011 80.919983 C 241.5 73.529999 245.799988 66.149994 252.26001 58.759979 C 244.880005 52.609985 232.279999 48.600006 219.980011 48.600006 C 186.160004 48.600006 162.179993 73.839996 162.179993 109.860016 L 162.179993 204.360016 L 162.169998 204.360016 Z M 28.440002 102.47998 L 28.440002 27.359985 L 73.940002 27.359985 C 89.309998 27.359985 99.460007 36.290009 99.460007 49.829987 C 99.460007 65.220001 86.240005 76.919983 59.190002 85.839996 C 40.739998 91.679993 32.449997 96.609985 29.370003 102.470001 L 28.440002 102.47998 Z M 28.440002 177.899994 L 28.440002 146.5 C 28.440002 132.649994 40.120003 119.100006 56.419998 113.869995 C 70.869995 108.940002 82.860001 104.019989 93.009995 98.790009 C 106.539993 106.799988 114.830002 120.640015 114.830002 135.110016 C 114.830002 159.730011 91.460007 177.899994 59.800003 177.899994 L 28.440002 177.899994 Z M 0.769997 204.369995 L 62.259995 204.369995 C 109 204.369995 144.039993 175.130005 144.039993 136.339996 C 144.039993 115.100006 133.279999 96.019989 114.220001 83.699982 C 124.059998 73.850006 128.669998 62.459991 128.669998 48.600006 C 128.669998 19.97998 108.070007 0.889984 77.020004 0.889984 L 0.769997 0.889984 L 0.769997 204.369995 Z"/>
    <path id="path1" fill="#d1d5dc" stroke="none" d="M 0.769997 281.720001 L 5.839996 281.720001 L 5.839996 263.360016 L 26.68 263.360016 L 26.68 258.769989 L 5.839996 258.769989 L 5.839996 244.029999 L 29.150002 244.029999 L 29.150002 239.440002 L 0.769997 239.440002 L 0.769997 281.720001 Z"/>
    <path id="path2" fill="#d1d5dc" stroke="none" d="M 48.879997 282.679993 C 57.399994 282.679993 65.130005 276.279999 65.130005 266.01001 C 65.130005 255.980011 57.399994 249.579987 48.879997 249.579987 C 40.360001 249.579987 32.629997 255.980011 32.629997 266.01001 C 32.629997 276.279999 40.360001 282.679993 48.879997 282.679993 Z M 37.580002 266.01001 C 37.580002 258.519989 42.230003 253.929993 48.870003 253.929993 C 55.509995 253.929993 60.160004 258.519989 60.160004 266.01001 C 60.160004 273.679993 55.509995 278.329987 48.870003 278.329987 C 42.230003 278.329987 37.580002 273.679993 37.580002 266.01001 Z"/>
    <path id="path3" fill="#d1d5dc" stroke="none" d="M 72.539993 281.720001 L 77.369995 281.720001 L 77.369995 270.610016 C 77.369995 264.75 78.399994 260.459991 81.050003 257.809998 C 83.160004 255.700012 86.240005 254.610016 90.589996 254.429993 L 90.589996 250.079987 C 82.860001 250.079987 78.990005 253.519989 77.610001 260.170013 L 77.369995 260.170013 L 77.190002 250.570007 L 72.539993 250.570007 L 72.539993 281.720001 Z"/>
    <path id="path4" fill="#d1d5dc" stroke="none" d="M 96.309998 281.720001 L 101.199997 281.720001 L 101.199997 265.350006 C 101.199997 258.040009 105.130005 254.059998 110.080002 254.059998 C 114.729996 254.059998 117.809998 257.440002 117.809998 262.579987 L 117.809998 281.720001 L 122.639999 281.720001 L 122.639999 265.660004 C 122.639999 258.709991 126.199997 254.059998 131.580002 254.059998 C 136.229996 254.059998 139.309998 257.440002 139.309998 262.579987 L 139.309998 281.720001 L 144.139999 281.720001 L 144.139999 261.01001 C 144.139999 254.190002 139.910004 249.600006 133.509995 249.600006 C 128.320007 249.600006 124.330002 252.619995 122.759995 258.119995 L 122.339996 258.119995 C 121.309998 252.929993 117.449997 249.600006 112.009995 249.600006 C 106.820007 249.600006 103.070007 252.619995 101.5 258.119995 L 101.199997 258.119995 L 100.839996 250.570007 L 96.25 250.570007 L 96.309998 281.720001 Z"/>
    <path id="path5" fill="#d1d5dc" stroke="none" d="M 167.050003 282.679993 C 174.779999 282.679993 180.520004 277.910004 181.419998 270.779999 L 176.470001 270.779999 C 175.559998 275.070007 172.240005 278.450012 167.050003 278.450012 C 161.009995 278.450012 156.539993 274.459991 156.419998 266.910004 L 181.539993 266.910004 C 181.600006 266.130005 181.660004 265.399994 181.660004 264.679993 C 181.660004 255.860016 175.380005 249.579987 166.919998 249.579987 C 157.860001 249.579987 151.580002 255.559998 151.580002 266.01001 C 151.589996 277.25 158.050003 282.679993 167.050003 282.679993 Z M 156.419998 263.540009 C 156.839996 257.140015 161.130005 253.820007 166.75 253.820007 C 172.729996 253.820007 176.350006 257.690002 176.720001 263.540009 L 156.419998 263.540009 Z"/>
    <path id="path6" fill="#d1d5dc" stroke="none" d="M 189.079987 281.720001 L 193.910004 281.720001 L 193.910004 270.610016 C 193.910004 264.75 194.940002 260.459991 197.589996 257.809998 C 199.700012 255.700012 202.779999 254.610016 207.130005 254.429993 L 207.130005 250.079987 C 199.399994 250.079987 195.529999 253.519989 194.149994 260.170013 L 193.910004 260.170013 L 193.730011 250.570007 L 189.079987 250.570007 L 189.079987 281.720001 Z"/>
    <path id="path7" fill="#d1d5dc" stroke="none" d="M 212.660004 239.440002 L 212.660004 281.720001 L 217.48999 281.720001 L 217.48999 239.450012 L 212.660004 239.450012 Z"/>
    <path id="path8" fill="#d1d5dc" stroke="none" d="M 228.059998 293.369995 C 233.309998 293.369995 236.269989 289.809998 239.109985 282.799988 L 252.339996 250.549988 L 247.029999 250.549988 L 241.720001 264.5 C 240.269989 268.179993 238.640015 272.230011 237.190002 276.220001 L 236.950012 276.220001 C 235.619995 272.230011 234.109985 268.070007 232.779999 264.380005 L 227.769989 250.549988 L 222.390015 250.549988 L 234.350006 281.589996 L 233.200012 284.309998 C 231.630005 287.929993 230.119995 289.079987 227.040009 289.079987 C 226.01001 289.079987 224.809998 288.899994 223.359985 288.540009 L 223.359985 292.649994 C 225.100006 293.130005 226.670013 293.369995 228.059998 293.369995 Z"/>
    <path id="path9" fill="#d1d5dc" fill-rule="evenodd" stroke="none" d="M 485.719971 231.640015 C 484.789978 230.73999 483.530029 230.290009 482.25 230.399994 C 480.969971 230.290009 479.710022 230.73999 478.780029 231.640015 C 477.849976 232.540009 477.320007 233.809998 477.349976 235.130005 C 477.539978 237.779999 479.679993 239.829987 482.26001 239.829987 C 484.840027 239.829987 486.98999 237.779999 487.169983 235.130005 C 487.179993 233.809998 486.659973 232.540009 485.719971 231.640015 Z M 460.070007 283.839996 L 467.51001 283.839996 L 467.559998 231.390015 L 459.590027 231.390015 L 459.590027 252.480011 C 457.130005 248.049988 450.919983 245.880005 446.320007 245.880005 C 435.339996 245.880005 427.140015 252.700012 427.140015 265.309998 C 427.140015 277.619995 435.5 284.73999 446.47998 284.73999 C 451.679993 284.940002 456.630005 282.390015 459.590027 277.980011 L 460.070007 283.839996 Z M 313.869995 252.320007 C 308.959991 252.320007 305.809998 253.959991 305.809998 256.890015 C 305.809998 259.820007 309.119995 261.100006 314.029999 261.619995 C 321.01001 262.220001 330.070007 263.429993 330.070007 273.019989 C 330.070007 279.860016 323.700012 284.720001 313.959991 284.720001 C 307.809998 284.720001 301.910004 283.350006 296.700012 277.880005 L 300.839996 272.410004 C 304.320007 275.940002 309.01001 277.899994 313.890015 277.880005 C 318.109985 277.880005 322.25 276.589996 322.25 273.149994 C 322.25 269.700012 319.019989 268.570007 313.420013 268.049988 C 306.359985 267.450012 298 265.320007 298 257.110016 C 298 248.910004 306.679993 245.860016 313.730011 245.860016 C 318.98999 245.75 324.130005 247.470001 328.329987 250.730011 L 324.190002 255.610016 C 321.190002 253.380005 317.570007 252.220001 313.869995 252.320007 Z M 356.230011 277.529999 C 360.209991 277.529999 364.829987 276.160004 367.209991 273.549988 L 372.359985 278.420013 C 368.440002 282.700012 361.910004 284.720001 356.089996 284.720001 C 343.649994 284.720001 335.670013 277.140015 335.670013 265.290009 C 335.670013 254.040009 343.950012 245.860016 355.929993 245.860016 C 367.070007 245.860016 374.73999 252.230011 374.73999 265 C 374.73999 266.040009 374.660004 267.170013 374.579987 268.299988 L 343.920013 268.299988 C 344.570007 274.070007 349.220001 277.529999 356.230011 277.529999 Z M 343.980011 261.850006 C 345.190002 255.850006 350.179993 252.769989 355.929993 252.769989 C 362.5 252.769989 366.480011 255.910004 366.929993 261.850006 L 343.980011 261.850006 Z M 411.339996 263.040009 C 411.339996 256.670013 407.649994 252.98999 401.130005 252.98999 C 398.25 252.959991 395.48999 254.149994 393.480011 256.269989 C 391.470001 258.399994 390.399994 261.279999 390.51001 264.23999 L 390.51001 283.839996 L 382.549988 283.839996 L 382.549988 246.769989 L 389.769989 246.769989 L 390.230011 251.940002 C 393.390015 248.070007 398.049988 245.839996 402.959991 245.869995 C 412.089996 245.869995 419.230011 251.420013 419.230011 262.980011 L 419.230011 283.850006 L 411.269989 283.850006 L 411.339996 263.040009 Z M 435.049988 265.290009 C 435.049988 272.799988 440.27002 277.529999 447 277.529999 C 453.539978 277.529999 458.840027 272.070007 458.840027 265.329987 C 458.840027 258.589996 453.539978 253.130005 447 253.130005 C 440.27002 253.140015 435.049988 257.790009 435.049988 265.290009 Z M 486.169983 283.839996 L 478.200012 283.839996 L 478.200012 246.769989 L 486.169983 246.769989 L 486.169983 283.839996 Z M 515.400024 252.98999 C 521.929993 252.98999 525.609985 256.670013 525.609985 263.040009 L 525.539978 283.839996 L 533.51001 283.839996 L 533.51001 262.970001 C 533.51001 251.420013 526.369995 245.860016 517.23999 245.860016 C 512.330017 245.829987 507.659973 248.059998 504.5 251.929993 L 504.030029 246.76001 L 496.820007 246.76001 L 496.820007 283.829987 L 504.780029 283.829987 L 504.780029 264.230011 C 504.669983 261.269989 505.73999 258.380005 507.75 256.26001 C 509.75 254.140015 512.52002 252.959991 515.400024 252.98999 Z M 551.619995 252.839996 C 554.070007 248.410004 560.299988 245.869995 564.890015 245.869995 C 575.789978 245.869995 584.080017 252.709991 584.080017 265.299988 C 584.080017 277.610016 575.169983 284.730011 564.820007 284.730011 C 560.049988 284.730011 554.609985 282.709991 551.609985 277.970001 L 551.159973 283.839996 L 543.710022 283.839996 L 543.710022 231.390015 L 551.679993 231.390015 L 551.619995 252.839996 Z M 555.590027 274.089996 C 553.299988 271.779999 552.030029 268.600006 552.080017 265.290009 C 552.059998 262 553.340027 258.839996 555.630005 256.549988 C 557.919983 254.26001 561.01001 253.019989 564.200012 253.130005 C 571.090027 253.130005 576.150024 257.779999 576.150024 265.290009 C 576.150024 272.799988 571.119995 277.529999 564.200012 277.529999 C 561 277.649994 557.890015 276.410004 555.590027 274.089996 Z M 600.73999 283.839996 L 592.77002 283.839996 L 592.77002 231.390015 L 600.73999 231.390015 L 600.73999 283.839996 Z M 629.369995 277.600006 C 622.690002 277.600006 619.080017 273.25 619.080017 266.950012 L 619.109985 246.769989 L 611.210022 246.769989 L 611.210022 267.019989 C 611.210022 278.209991 617.849976 284.730011 627.140015 284.730011 C 632.150024 284.899994 636.969971 282.690002 640.190002 278.730011 L 640.659973 283.839996 L 647.780029 283.839996 L 647.780029 246.769989 L 639.880005 246.769989 L 639.880005 266.420013 C 640 269.360016 638.950012 272.230011 636.960022 274.339996 C 634.969971 276.450012 632.22998 277.630005 629.369995 277.600006 Z M 676.799988 277.529999 C 680.780029 277.529999 685.390015 276.160004 687.780029 273.549988 L 692.919983 278.420013 C 689 282.700012 682.48999 284.720001 676.650024 284.720001 C 664.219971 284.720001 656.23999 277.140015 656.23999 265.290009 C 656.23999 254.040009 664.530029 245.860016 676.51001 245.860016 C 687.630005 245.860016 695.309998 252.230011 695.309998 265 C 695.309998 265.890015 695.25 266.850006 695.190002 267.809998 C 695.179993 267.970001 695.169983 268.130005 695.159973 268.290009 L 664.460022 268.290009 C 665.140015 274.070007 669.809998 277.529999 676.799988 277.529999 Z M 664.539978 261.850006 C 665.72998 255.850006 670.719971 252.769989 676.48999 252.769989 C 683.01001 252.769989 687 255.910004 687.47998 261.850006 L 664.539978 261.850006 Z"/>
</svg>
