<?xml version="1.0" encoding="UTF-8"?>
<!-- Generated by Pixelmator Pro 3.4.2 -->
<svg width="360" height="151" viewBox="0 0 360 151" xmlns="http://www.w3.org/2000/svg">
    <g id="Group">
        <path id="Path" fill="#d1d5dc" fill-rule="evenodd" stroke="none" d="M 360 77.900002 C 360 52.300003 347.600006 32.100006 323.899994 32.100006 C 300.100006 32.100006 285.700012 52.300003 285.700012 77.699997 C 285.700012 107.800003 302.700012 123 327.100006 123 C 339 123 348 120.300003 354.799988 116.5 L 354.799988 96.5 C 348 99.899994 340.200012 102 330.299988 102 C 320.600006 102 312 98.600006 310.899994 86.800003 L 359.799988 86.800003 C 359.799988 85.5 360 80.300003 360 77.900002 Z M 310.600006 68.400002 C 310.600006 57.100006 317.5 52.399994 323.799988 52.399994 C 329.899994 52.399994 336.399994 57.100006 336.399994 68.400002 L 310.600006 68.400002 Z"/>
        <path id="path1" fill="#d1d5dc" fill-rule="evenodd" stroke="none" d="M 247.100006 32.100006 C 237.299988 32.100006 231 36.699997 227.5 39.899994 L 226.200012 33.699997 L 204.200012 33.699997 L 204.200012 150.300003 L 229.200012 145 L 229.299988 116.699997 C 232.899994 119.300003 238.200012 123 247 123 C 264.899994 123 281.200012 108.600006 281.200012 76.900002 C 281.100006 47.899994 264.600006 32.100006 247.100006 32.100006 Z M 241.100006 101 C 235.200012 101 231.700012 98.899994 229.299988 96.300003 L 229.200012 59.199997 C 231.799988 56.300003 235.399994 54.300003 241.100006 54.300003 C 250.200012 54.300003 256.5 64.5 256.5 77.599998 C 256.5 91 250.299988 101 241.100006 101 Z"/>
        <path id="path2" fill="#d1d5dc" fill-rule="evenodd" stroke="none" d="M 169.800003 26.199997 L 194.899994 20.800003 L 194.899994 0.5 L 169.800003 5.800003 Z"/>
        <path id="path3" fill="#d1d5dc" fill-rule="evenodd" stroke="none" d="M 169.800003 33.800003 L 194.899994 33.800003 L 194.899994 121.300003 L 169.800003 121.300003 Z"/>
        <path id="path4" fill="#d1d5dc" fill-rule="evenodd" stroke="none" d="M 142.899994 41.199997 L 141.300003 33.800003 L 119.699997 33.800003 L 119.699997 121.300003 L 144.699997 121.300003 L 144.699997 62 C 150.600006 54.300003 160.600006 55.699997 163.699997 56.800003 L 163.699997 33.800003 C 160.5 32.600006 148.800003 30.399994 142.899994 41.199997 Z"/>
        <path id="path5" fill="#d1d5dc" fill-rule="evenodd" stroke="none" d="M 92.899994 12.100006 L 68.5 17.300003 L 68.400002 97.399994 C 68.400002 112.199997 79.5 123.100006 94.300003 123.100006 C 102.5 123.100006 108.5 121.600006 111.800003 119.800003 L 111.800003 99.5 C 108.600006 100.800003 92.800003 105.399994 92.800003 90.599998 L 92.800003 55.100006 L 111.800003 55.100006 L 111.800003 33.800003 L 92.800003 33.800003 L 92.899994 12.100006 Z"/>
        <path id="path6" fill="#d1d5dc" fill-rule="evenodd" stroke="none" d="M 25.300003 59.199997 C 25.300003 55.300003 28.5 53.800003 33.800003 53.800003 C 41.400002 53.800003 51 56.100006 58.599998 60.199997 L 58.599998 36.699997 C 50.300003 33.399994 42.099998 32.100006 33.800003 32.100006 C 13.5 32.100006 0 42.699997 0 60.400002 C 0 88 38 83.599998 38 95.5 C 38 100.100006 34 101.600006 28.400002 101.600006 C 20.099998 101.600006 9.5 98.199997 1.099998 93.600006 L 1.099998 117.399994 C 10.400002 121.399994 19.800003 123.100006 28.400002 123.100006 C 49.199997 123.100006 63.5 112.800003 63.5 94.899994 C 63.400002 65.099998 25.300003 70.400002 25.300003 59.199997 Z"/>
    </g>
</svg>
