<svg version="1.1" id="Layer_1" xmlns="http://www.w3.org/2000/svg" xmlns:xlink="http://www.w3.org/1999/xlink" x="0px" y="0px" viewBox="0 0 286 52" style="enable-background:new 0 0 286 52;" xml:space="preserve">
 <style type="text/css">
  .st0{fill:#d1d5dc;}
 </style>
 <g>
  <path class="st0" d="M33.6,50.9H20.1L0,1.1h15.3l11.6,29.7L38.3,1.1h15.3L33.6,50.9z">
  </path>
  <path class="st0" d="M95.2,50.9H57.2V1.1h37.8v12H70.9v7.4H93v10.9H70.9v7.4h24.3V50.9z">
  </path>
  <path class="st0" d="M139.3,50.9h-38.1V1.1H139v12h-24.1v7.4h22.1v10.9h-22.1v7.4h24.3V50.9z">
  </path>
  <path class="st0" d="M165.5,1.1c7.8,0,14.1,2.3,18.9,6.8c4.8,4.6,7.1,10.6,7.1,18.1c0,7.4-2.4,13.4-7.1,18
		c-4.8,4.6-11.1,6.9-18.9,6.9h-20.2V1.1H165.5z M164.5,38.9c4,0,7.1-1.2,9.6-3.6c2.4-2.4,3.6-5.5,3.6-9.3s-1.2-6.9-3.6-9.3
		c-2.4-2.4-5.6-3.6-9.6-3.6H159v25.7H164.5z">
  </path>
  <path class="st0" d="M202.8,36c2.1,0,3.9,0.8,5.4,2.3c1.4,1.5,2.1,3.3,2.1,5.4c0,2.2-0.7,4-2.1,5.4c-1.4,1.4-3.2,2.2-5.4,2.2
		s-3.9-0.7-5.3-2.2c-1.4-1.4-2.1-3.2-2.1-5.4c0-2.1,0.7-3.9,2.1-5.4C198.8,36.7,200.6,36,202.8,36z">
  </path>
  <path class="st0" d="M215.2,50.9V1.1h13.7v49.8H215.2z">
  </path>
  <path class="st0" d="M260.2,0c7.2,0,13.4,2.5,18.3,7.5c4.9,5.1,7.4,11.2,7.4,18.5s-2.5,13.4-7.4,18.4c-5,5.1-11.1,7.6-18.3,7.6
		c-7.2,0-13.3-2.5-18.3-7.6c-5-5-7.5-11.1-7.5-18.4s2.5-13.4,7.5-18.5C246.9,2.5,253,0,260.2,0z M260.2,39.1c3.4,0,6.3-1.3,8.6-3.8
		c2.2-2.5,3.4-5.6,3.4-9.4c0-3.7-1.1-6.8-3.4-9.4c-2.3-2.5-5.1-3.8-8.6-3.8c-3.4,0-6.3,1.3-8.5,3.8c-2.3,2.5-3.4,5.6-3.4,9.4
		c0,3.8,1.1,6.9,3.4,9.4C254,37.9,256.8,39.1,260.2,39.1z">
  </path>
 </g>
</svg>