<svg xmlns="http://www.w3.org/2000/svg" xmlns:xlink="http://www.w3.org/1999/xlink" id="Layer_1" x="0px" y="0px" viewBox="0 0 64.89 74.67" style="enable-background:new 0 0 64.89 74.67;" xml:space="preserve"> <style type="text/css"> .st0{fill:#3BBC56;} .st1{fill:#F2F2F2;} .st2{clip-path:url(#SVGID_00000018225079652514346070000004627895999347227288_);fill:#31AA3F;} .st3{clip-path:url(#SVGID_00000018225079652514346070000004627895999347227288_);fill:#8DD83D;} .st4{fill:#FBE588;} .st5{fill:none;stroke:#FFFFFF;stroke-width:0.2527;stroke-miterlimit:10;} .st6{opacity:0.2;fill:#0C063F;} .st7{opacity:0.25;fill:#0C063F;} .st8{fill:#FF4C4A;} .st9{fill:#D4F8FA;} .st10{fill:#FF7A7A;} .st11{fill:#FF4B48;} .st12{fill:#4D31D8;} .st13{fill:#00A7B4;} .st14{fill:#0C063F;} .st15{fill:#666DE3;} .st16{fill:#212242;} .st17{fill:#FFC2BD;} .st18{opacity:0.15;fill:#FAFFFC;} .st19{fill:#2DD6DF;} .st20{clip-path:url(#SVGID_00000153683496929791064750000002116302004446885306_);fill:#E6F7FF;} .st21{clip-path:url(#SVGID_00000153683496929791064750000002116302004446885306_);fill:#B3E5FF;} .st22{fill:#4D6D8C;} .st23{fill:#284866;} .st24{fill:#80FFAA;} .st25{fill:#E6F7FF;} .st26{fill:#102840;} .st27{fill:#2EE6A8;} .st28{fill:#B3E5FF;} .st29{fill:#80D4FF;} </style> <g> <g> <defs> <rect id="SVGID_00000063610868939467458850000010522144428197221032_" x="7.95" y="12.24" width="51.49" height="46.13"></rect> </defs> <clipPath id="SVGID_00000067211887465042661680000016874504198155029432_"> <use xlink:href="#SVGID_00000063610868939467458850000010522144428197221032_" style="overflow:visible;"></use> </clipPath> <path style="clip-path:url(#SVGID_00000067211887465042661680000016874504198155029432_);fill:#E6F7FF;" d="M33.69,18.87 l5.52,13.61l-5.52,10.84H18.01c-5.55,0-10.06-4.51-10.06-10.05c0-2.53,0.95-4.95,2.66-6.81c1.11-1.2,2.48-2.12,4-2.64 c-0.09-0.52-0.13-1.06-0.13-1.61c0-5.49,4.46-9.95,9.96-9.95C28.76,12.27,32.32,15.03,33.69,18.87L33.69,18.87z M33.69,18.87"></path> <path style="clip-path:url(#SVGID_00000067211887465042661680000016874504198155029432_);fill:#B3E5FF;" d="M59.44,33.29 c0,5.53-4.51,10.04-10.05,10.04h-15.7V18.87l0,0c0.06-0.02,1.88-0.8,4.53-0.8c4.01-0.02,7.91,1.98,10.24,5.22 C54.3,22.72,59.47,27.42,59.44,33.29L59.44,33.29z M59.44,33.29"></path> </g> <path class="st22" d="M33.69,31.21l6.04,7.74l-6.04,5.83l-6.1,2.96l-6.63-2.96c-1.3,0-2.35-1.05-2.35-2.35v-8.87 c0-1.3,1.05-2.35,2.35-2.35H33.69z M33.69,31.21"></path> <path class="st23" d="M33.69,31.21v13.56l7.07,3.82l5.67-3.82c1.3,0,2.35-1.05,2.35-2.35v-8.87c0-1.3-1.05-2.35-2.35-2.35H33.69z M33.69,31.21"></path> <path class="st24" d="M26.25,37.99c0,0.83-0.68,1.51-1.51,1.51c-0.83,0-1.51-0.67-1.51-1.51s0.68-1.51,1.51-1.51 C25.58,36.49,26.25,37.16,26.25,37.99L26.25,37.99z M26.25,37.99"></path> <path class="st25" d="M33.69,36.49l3.11,1.51l-3.11,1.51h-2.41c-0.83,0-1.51-0.68-1.51-1.51c0-0.83,0.68-1.51,1.51-1.51H33.69z M33.69,36.49"></path> <path class="st23" d="M33.69,44.77l6.55,6.78l-6.55,6.78H20.96c-1.3,0-2.35-1.05-2.35-2.35v-8.87c0-1.3,1.05-2.35,2.35-2.35H33.69z M33.69,44.77"></path> <path class="st26" d="M33.69,44.77v13.56h12.74c1.3,0,2.35-1.05,2.35-2.35v-8.87c0-1.3-1.05-2.35-2.35-2.35H33.69z M33.69,44.77"></path> <path class="st27" d="M26.25,51.56c0,0.83-0.68,1.51-1.51,1.51c-0.83,0-1.51-0.67-1.51-1.51c0-0.83,0.68-1.51,1.51-1.51 C25.58,50.05,26.25,50.72,26.25,51.56L26.25,51.56z M26.25,51.56"></path> <path class="st28" d="M33.69,50.05l2.25,1.51l-2.25,1.51h-2.41c-0.83,0-1.51-0.68-1.51-1.51c0-0.83,0.68-1.51,1.51-1.51 L33.69,50.05L33.69,50.05z M33.69,50.05"></path> <path class="st29" d="M33.69,50.05v3.01h8.45c0.83,0,1.51-0.68,1.51-1.51c0-0.83-0.68-1.51-1.51-1.51L33.69,50.05L33.69,50.05z M33.69,50.05"></path> <path class="st28" d="M33.69,36.49v3.01h8.45c0.83,0,1.51-0.68,1.51-1.51c0-0.83-0.68-1.51-1.51-1.51H33.69z M33.69,36.49"></path> </g> </svg>