<?xml version="1.0" encoding="UTF-8"?> <svg xmlns="http://www.w3.org/2000/svg" xmlns:xlink="http://www.w3.org/1999/xlink" id="Layer_1" data-name="Layer 1" viewBox="0 0 52.92 61.7"><defs><style>.cls-1{fill:none;}.cls-2{fill:#3bbc56;}.cls-3{fill:#f2f2f2;}.cls-4{clip-path:url(#clip-path);}.cls-5{fill:#31aa3f;}.cls-6{fill:#8dd83d;}</style><clipPath id="clip-path" transform="translate(-6.11 -5.69)"><rect class="cls-1" x="6.11" y="5.64" width="53" height="61.89"></rect></clipPath></defs><path class="cls-2" d="M55.12,25a2.22,2.22,0,0,0-1.32-1.06c-5.54-1.2-15.67-4.68-21.17-14.52a.08.08,0,0,0-.14,0C27,19.21,16.87,22.69,11.32,23.89A2.19,2.19,0,0,0,10,24.94a3.42,3.42,0,0,0,.08,2.8C11.56,31,13.32,37,13.32,46.79c0,5.86,3.33,10.66,9.62,13.86a33.62,33.62,0,0,0,9.62,3.1,33.56,33.56,0,0,0,9.62-3.1c6.3-3.2,9.63-8,9.63-13.86C51.81,37,53.56,31,55,27.73A3.42,3.42,0,0,0,55.12,25Zm0,0" transform="translate(-6.11 -5.69)"></path><path class="cls-3" d="M29.86,45.5l-5.09-5.14a1.85,1.85,0,0,1,2.63-2.61l3.76,3.8,7.52-7.78a1.85,1.85,0,0,1,2.66,2.57l-8.83,9.14a1.86,1.86,0,0,1-2.65,0Zm0,0" transform="translate(-6.11 -5.69)"></path><g class="cls-4"><path class="cls-5" d="M20.31,45.81c0-11.51-1.82-19-3.58-23.54-5.1,1.92-6,1.19-6.72,2.62a3.32,3.32,0,0,0,.07,2.74c1.48,3.27,3.24,9.23,3.24,19.08,0,5.84,3.31,10.61,9.59,13.81a34.44,34.44,0,0,0,8.31,2.86C24.07,59.1,20.31,53.07,20.31,45.81Zm0,0" transform="translate(-6.11 -5.69)"></path><path class="cls-6" d="M32.56,67.39a4,4,0,0,1-.49,0A37.9,37.9,0,0,1,21.29,63.9C14.23,60.3,9.68,54.54,9.68,46.79c0-9.19-1.58-14.62-2.91-17.55L6.68,29c-1.78-4.73.93-8,3.79-8.66,8-1.88,14.88-5.67,18.85-12.76a3.72,3.72,0,0,1,6.49,0c4.8,8.6,13.82,11.67,18.76,12.74l.14,0c3.48.88,5.45,4.89,3.64,8.88-1.32,2.93-2.9,8.36-2.9,17.55a17.19,17.19,0,0,1-3,9.92,22.63,22.63,0,0,1-8.59,7.19,37.87,37.87,0,0,1-10.76,3.46,4.49,4.49,0,0,1-.51,0Zm0-58C27,19.26,16.89,22.75,11.34,24a2.1,2.1,0,0,0-1.27,1,3.32,3.32,0,0,0,.07,2.74c1.48,3.27,3.24,9.23,3.24,19.08,0,5.84,3.32,10.61,9.59,13.81a34.35,34.35,0,0,0,9.59,3.09,33.48,33.48,0,0,0,9.59-3.09c6.28-3.2,9.6-8,9.6-13.81C51.75,36.94,53.5,31,55,27.71A3.3,3.3,0,0,0,55.06,25a2.11,2.11,0,0,0-1.27-1c-5.56-1.2-15.7-4.68-21.21-14.55Zm0,0" transform="translate(-6.11 -5.69)"></path></g></svg> 