<svg xmlns="http://www.w3.org/2000/svg" xmlns:xlink="http://www.w3.org/1999/xlink" id="Layer_1" x="0px" y="0px" viewBox="0 0 64.89 74.67" style="enable-background:new 0 0 64.89 74.67;" xml:space="preserve"> <style type="text/css"> .st0{fill:#3BBC56;} .st1{fill:#F2F2F2;} .st2{clip-path:url(#SVGID_00000122718463240336331590000012867586642070688920_);fill:#31AA3F;} .st3{clip-path:url(#SVGID_00000122718463240336331590000012867586642070688920_);fill:#8DD83D;} .st4{fill:#FBE588;} .st5{fill:none;stroke:#FFFFFF;stroke-width:0.2527;stroke-miterlimit:10;} .st6{opacity:0.2;fill:#0C063F;} .st7{opacity:0.25;fill:#0C063F;} .st8{fill:#FF4C4A;} .st9{fill:#D4F8FA;} .st10{fill:#FF7A7A;} .st11{fill:#FF4B48;} .st12{fill:#4D31D8;} .st13{fill:#00A7B4;} .st14{fill:#0C063F;} .st15{fill:#666DE3;} .st16{fill:#212242;} .st17{fill:#FFC2BD;} .st18{opacity:0.15;fill:#FAFFFC;} .st19{fill:#2DD6DF;} </style> <g> <g> <path class="st4" d="M8.47,19.38c12.67-12.98,27.9-12.89,41.68-4.89c6.16,3.57,7.48,9,8.43,15.01c1.17,7.43,6.78,11.66-0.22,18.84 c-5.13,5.25-13.29,8.37-20.03,7.8c-10.66-0.89-19.65,5.98-27.84,1.22c-6.22-3.61,0.25-10.59-2.61-15.98 C1.37,29.08,1.53,26.5,8.47,19.38z"></path> <path class="st5" d="M12.86,17.11c14-11.36,28.2-9.57,39.69-0.15c5.14,4.21,5.45,9.7,5.32,15.73c-0.16,7.45,4.35,12.24-3.39,18.53 c-5.67,4.6-13.81,6.75-20,5.44c-9.79-2.07-19.33,3.68-26.17-1.92c-5.19-4.25,2.02-10.4,0.27-16.03 C4.59,25.86,5.18,23.34,12.86,17.11z"></path> <path class="st5" d="M7.14,21.64C17.8,8.28,32.16,7.88,46.81,14.13c6.55,2.79,8.6,7.78,10.37,13.34 c2.19,6.88,8.29,10.34,2.4,17.73c-4.31,5.41-11.91,9.09-18.61,9.18c-10.6,0.14-18.49,7.43-27.21,3.71 c-6.62-2.82-1.23-9.98-4.78-14.79C0.87,32.34,1.3,28.97,7.14,21.64z"></path> <path class="st5" d="M10.39,19.05C23.29,6.88,37.88,7.56,50.6,15.91c5.69,3.73,6.63,9.08,7.18,14.98 c0.69,7.3,5.81,11.65-1.32,18.38c-5.22,4.93-13.23,7.65-19.65,6.83c-10.16-1.29-19.17,5.06-26.74,0.1 c-5.75-3.77,0.86-10.33-1.55-15.7C3.01,28.24,3.32,25.73,10.39,19.05z"></path> <ellipse class="st6" cx="28.73" cy="60.29" rx="23.01" ry="2.72"></ellipse> </g> <g> <g> <rect x="11.82" y="35.31" class="st7" width="32.4" height="1.46"></rect> <rect x="11.82" y="15.34" class="st8" width="32.4" height="20.21"></rect> <rect x="13.39" y="16.82" class="st9" width="29.25" height="17.23"></rect> <rect x="27.14" y="16.82" class="st8" width="1.76" height="17.23"></rect> </g> <g> <g> <g> <path class="st10" d="M41.05,40.82c-4.5-0.52-7.36,0.2-8.5-0.2c-2.08-0.72-6.49-0.06-7.09,0.22c-0.6,0.28-1.33,3.66-1.33,3.66 l0.82-0.16c0,0,1.45-1.55,1.79-2.01c0.09-0.12,0.14-0.26,0.14-0.4c0-0.35,4.61,1.16,5.66,0.78c0,0,6.6,1.63,8.83,1.16 L41.05,40.82z"></path> <path class="st11" d="M41.15,43.89c0.08-0.01,0.16-0.02,0.23-0.04l-0.32-3.03c-1.09-0.13-2.09-0.18-2.99-0.19l0.21,1.75 c-3.73-0.41-8.04-1.12-11.59-1.12c-0.47,0-0.77,0.74-1.7,1.91c0,0.12-0.24,0.12-0.54,0.03c-0.19,0.71-0.32,1.3-0.32,1.3 l0.82-0.16c0,0,1.45-1.55,1.79-2.01c0.09-0.12,0.14-0.26,0.14-0.4c0-0.35,4.61,1.16,5.66,0.78c0,0,4.78,1.18,7.57,1.24 C40.5,43.95,40.84,43.94,41.15,43.89z"></path> <path class="st12" d="M43.94,40.38h-5.26l0.47,4.03h5.74c0,0,2.02,0,1.54-2.01C45.95,40.38,43.94,40.38,43.94,40.38z"></path> <path class="st6" d="M46.43,42.39c-0.47-2.01-2.49-2.01-2.49-2.01h-2.7c0.07,0.14,0.14,0.29,0.2,0.44 c0.49,1.38,0.11,2.73-0.85,3.58h4.29C44.88,44.4,46.9,44.4,46.43,42.39z"></path> <rect x="12.03" y="57.14" transform="matrix(0.1351 0.9908 -0.9908 0.1351 69.656 37.6299)" class="st10" width="2.49" height="3.16"></rect> <rect x="12.97" y="57.96" transform="matrix(0.1351 0.9908 -0.9908 0.1351 70.5724 38.2329)" class="st11" width="0.82" height="3.16"></rect> <path class="st13" d="M13.56,56.68l11.65-2.78l8.88,0.03l-3.02-6.43l-2.18,6.42l-3.68-0.01c0,0,1.83-12.26,5.06-12.58 c3.22-0.32,9.94,11.46,9.94,11.46l6.05,5.24c-1.39,3.42-15.96,1.09-20.27,1.41c-5.54,0.41-11.72,1.47-11.72,1.47L13.56,56.68z"></path> <path class="st6" d="M40.21,52.78c0,0-6.71-11.78-9.94-11.46c-3.22,0.32-5.06,12.58-5.06,12.58l3.68,0.01l2.18-6.42l3.02,6.43 l-8.88-0.03c0,0-0.79,1.1,1.37,1.92c2.16,0.82,6.24,1.12,6.16,1.76c-0.08,0.64-4.71,0.37-6.17,0.47 c-1.47,0.1-10.66,1.2-10.97,1.01c-0.46-0.28-0.5-1.87-0.66-2.7l-1.39,0.33l0.7,4.23c0,0,6.18-1.06,11.72-1.47 c4.31-0.32,18.88,2.01,20.27-1.41L40.21,52.78z"></path> <path class="st12" d="M46.71,58.67c0,0,7.09-10.93,3.17-17.41c-0.81-1.34-2.61-2.14-3.77-2.23c-2.29-0.16-3.46,1.33-3.46,3.21 c0,2.68-1.37,8.69-3.21,9.22C39.43,51.47,40.29,56.73,46.71,58.67z"></path> <path class="st6" d="M49.68,50.79c-0.97,2.03-3.38,5.29-6.02,4.1c-1.67-0.75-2.58-2.68-3.04-4.57 c-0.36,0.6-0.76,1.02-1.19,1.14c0,0,0.86,5.27,7.28,7.21c0,0,4.38-6.75,4.35-12.79C50.85,47.57,50.43,49.22,49.68,50.79z"></path> <g> <path class="st10" d="M42.64,37.7l1.6,3.5c0,0,1.83,0.4,2.18-0.76l-0.78-5.73L42.64,37.7z"></path> <path class="st11" d="M46.22,38.96l-0.58-4.26l-3,3l1.55,3.38C45.01,40.51,45.64,39.76,46.22,38.96z"></path> <path class="st10" d="M40.16,36.65c0.3,2.28,0.66,3.81,1.79,4.01c1.13,0.19,2.67-1.01,3.52-2.27c2.3-3.4,0.6-5.83-0.7-6.4 C41.59,30.57,39.86,34.37,40.16,36.65z"></path> <path class="st11" d="M44.8,34.55c0.88,0.32-0.36,1.61,1.16,1.61c0.57-2.27-0.18-3.74-1.19-4.18 c-2.58-1.14-4.16,0.93-4.52,3.04C42.43,35.98,43.91,34.23,44.8,34.55z"></path> <path class="st14" d="M41.63,38.34c1.37,0.15,2.9,0.62,3.33-1.03c0.43-1.65,0.58-3.25-0.25-3.48 c-0.83-0.23-2.18,1.23-3.66,0.93s-2.49-1.31-1.53-2.48c0.96-1.17,2.12-0.67,2.12-0.67s2.74-1.22,4.5,0.07 c1.76,1.29,1.2,4.83-0.09,6.5c-1.29,1.68-1.76,3.06-4.03,2.98C39.68,41.08,40.26,38.2,41.63,38.34z"></path> <path class="st15" d="M44.8,31.63c0.01,0.18-0.48,0.36-1.09,0.4c-0.62,0.04-1.13-0.07-1.14-0.25 c-0.01-0.18,0.48-0.36,1.09-0.4C44.27,31.34,44.78,31.45,44.8,31.63z"></path> <path class="st15" d="M41.12,32.03c0.13,0.19-0.09,0.57-0.5,0.85c-0.41,0.28-0.84,0.36-0.97,0.18s0.09-0.57,0.5-0.85 C40.55,31.92,40.99,31.84,41.12,32.03z"></path> <path class="st10" d="M45.56,35.47c0,0,0.71-1.01,1.21,0.01c0.33,0.68-0.16,2.39-1.38,2.01L45.56,35.47z"></path> <g> <g> <g> <path class="st14" d="M43.07,36.38c0.17-0.01,0.31,0.16,0.31,0.37c0.01,0.21-0.12,0.39-0.29,0.39 c-0.17,0.01-0.31-0.16-0.31-0.37C42.78,36.56,42.9,36.38,43.07,36.38z"></path> <path class="st14" d="M40.7,36.41c0.17-0.01,0.31,0.16,0.31,0.37c0.01,0.21-0.12,0.39-0.29,0.39 c-0.17,0.01-0.31-0.16-0.31-0.37C40.41,36.59,40.54,36.42,40.7,36.41z"></path> </g> </g> <g> <path class="st16" d="M41.86,38.16c0.04-0.01,0.08-0.02,0.12-0.04c0.02-0.01,0.03-0.04,0.02-0.06 c-0.01-0.02-0.04-0.03-0.06-0.02c-0.13,0.07-0.26,0.04-0.34-0.01c-0.04-0.02-0.09-0.08-0.09-0.16 c0.01-0.07,0.07-0.2,0.14-0.33c0.13-0.25,0.27-0.54,0.19-0.73c-0.01-0.02-0.04-0.04-0.06-0.03 c-0.02,0.01-0.04,0.04-0.03,0.06c0.06,0.15-0.08,0.43-0.19,0.65c-0.08,0.15-0.14,0.27-0.15,0.36 c-0.01,0.1,0.04,0.19,0.13,0.25C41.64,38.16,41.76,38.18,41.86,38.16z"></path> </g> <g> <path class="st14" d="M42.3,35.79c0.01-0.04,0.03-0.08,0.07-0.1c0.46-0.3,1.02-0.3,1.66,0.01c0.08,0.04,0.12,0.14,0.08,0.22 c-0.03,0.06-0.08,0.09-0.15,0.09c-0.02,0-0.05-0.01-0.07-0.02c-0.53-0.26-0.97-0.27-1.33-0.03 c-0.04,0.02-0.08,0.03-0.12,0.02c-0.04-0.01-0.08-0.03-0.1-0.07C42.3,35.88,42.3,35.83,42.3,35.79z"></path> </g> <path class="st14" d="M41.04,35.96c0.04,0.02,0.08,0.03,0.12,0.02c0.04-0.01,0.08-0.03,0.1-0.07 c0.02-0.04,0.03-0.08,0.02-0.12c-0.01-0.04-0.03-0.08-0.07-0.1c-0.31-0.2-0.66-0.26-1.05-0.19c-0.08,0.11-0.1,0.26-0.03,0.34 C40.48,35.75,40.78,35.79,41.04,35.96z"></path> <path class="st17" d="M41.6,37.87c0,0.06,0.09,0.11,0.19,0.1c0.1,0,0.18-0.05,0.18-0.11c0-0.06-0.09-0.11-0.19-0.1 C41.68,37.76,41.6,37.81,41.6,37.87z"></path> <path class="st11" d="M46.21,35.77c-0.17-0.03-0.34,0.18-0.39,0.46c-0.05,0.28,0.05,0.53,0.22,0.56 c0.17,0.03,0.34-0.18,0.39-0.46C46.48,36.05,46.38,35.8,46.21,35.77z"></path> </g> </g> <path class="st14" d="M12.2,57.33l0.18,2.95c0,0-1.45,1.37-2.56,1.21c-1.11-0.16-3.46-5.49-3.46-6.23 c0-0.75,0.92-1.05,1.67-0.05C8.77,56.22,10.43,57.94,12.2,57.33z"></path> <path class="st18" d="M10.74,59.52c0.42-0.14,0.55-0.96,0.59-1.78c-1.34,0.12-2.55-1.15-3.12-1.92 c-0.31-0.42-0.65-0.57-0.92-0.55C8.04,57.09,8.87,59.7,10.74,59.52z"></path> </g> </g> </g> <g> <g> <g> <path class="st19" d="M23.32,43.17l4.49,0.73c0.1,0.02,0.18,0.08,0.23,0.16l5.83,10.45c0.13,0.23-0.06,0.51-0.32,0.48 l-4.96-0.63c-0.11-0.01-0.2-0.08-0.25-0.18c-0.56-1.16-5.06-8.17-6.14-10.27C22.09,43.67,23.06,43.13,23.32,43.17z"></path> </g> <g> <path class="st9" d="M22.51,43.65L27,44.38c0.1,0.02,0.18,0.08,0.23,0.16l5.83,10.45c0.13,0.23-0.06,0.51-0.32,0.48l-4.96-0.63 c-0.11-0.01-0.2-0.08-0.25-0.18c-0.56-1.16-4.29-8.45-5.36-10.55C22.05,43.88,22.25,43.61,22.51,43.65z"></path> </g> </g> <path class="st19" d="M42.76,54.57l-9.74,0.11c-0.26,0-0.45,0.23-0.42,0.48l0,0c0.02,0.22,0.21,0.39,0.43,0.38l9.74-0.07 c0.24,0,0.43-0.19,0.43-0.43l0-0.04C43.2,54.76,43,54.57,42.76,54.57z"></path> <path class="st10" d="M35.18,54.67l1.22-1.31l2.75,0.21c0,0,5.48-1.65,5.99-2.24c0.51-0.59,1.68-5.89,1.68-5.89l3.06-0.17 c0,0-1.13,7.23-1.72,7.79s-4.96,1.49-4.96,1.49L35.18,54.67z"></path> <path class="st11" d="M35.44,54.4l-0.26,0.28l8.02-0.11c0,0,0.31-0.05,1.33-0.31L35.44,54.4z"></path> <path class="st11" d="M48.94,50.6c0.43-2.14,0.94-5.32,0.94-5.32l-3.06,0.17c0,0-0.58,2.62-1.1,4.38L48.94,50.6z"></path> <path class="st19" d="M27.52,49.85c0.16,0.43,0.09,0.85-0.15,0.93s-0.56-0.18-0.72-0.61c-0.16-0.43-0.09-0.85,0.15-0.93 C27.04,49.15,27.36,49.43,27.52,49.85z"></path> </g> <path class="st12" d="M49.61,49.99l-4.08-0.74l1.02-5.63c0.21-1.13,1.29-1.88,2.41-1.67l0,0c1.13,0.21,1.88,1.29,1.67,2.41 L49.61,49.99z"></path> <path class="st6" d="M48.96,41.94L48.96,41.94c-0.52-0.1-1.03,0.02-1.45,0.27c0.22-0.03,0.46-0.01,0.72,0.12 c1.24,0.6,1.16,2.49,1.08,3.62c-0.09,1.37,0.03,3.06-1.24,3.75l1.55,0.28l1.02-5.63C50.84,43.23,50.09,42.15,48.96,41.94z"></path> </g> </g> </svg>