<svg xmlns="http://www.w3.org/2000/svg" xmlns:xlink="http://www.w3.org/1999/xlink" xml:space="preserve" width="330.2mm" height="76.2mm" style="shape-rendering:geometricPrecision; text-rendering:geometricPrecision; image-rendering:optimizeQuality; fill-rule:evenodd; clip-rule:evenodd" viewBox="0 0 33020 7620"> <defs> <style type="text/css"> .fil1 {fill:#006093} .fil0 {fill:#6D9FC4} .fil2 {fill:#006093;fill-rule:nonzero} </style> </defs> <g id="Layer_x0020_1"> <metadata id="CorelCorpID_0Corel-Layer"></metadata> <g id="_636415017536"> <g> <polygon class="fil0" points="3645,3215 4761,3800 4750,3822 4750,3805 3183,4405 2068,3820 2078,3762 2078,3816 "></polygon> <g> <path class="fil1" d="M2716 2053l2034 -780 0 676c0,419 -246,776 -637,926l-2035 780 0 -676c0,-419 246,-776 638,-926z"></path> <path class="fil1" d="M2716 4745l2034 -779 0 675c0,420 -246,777 -638,927l-2033 779 0 -675c0,-420 245,-777 637,-927z"></path> </g> </g> <path class="fil2" d="M27476 5641l1714 -3760 54 0 1708 3760 -473 0 -409 -933 -1734 0 -408 933 -452 0zm1021 -1285l1419 0 -704 -1615 -715 1615zm-2245 1285l0 -3272 -1294 0 0 -395 3029 0 0 395 -1295 0 0 3272 -440 0zm-4710 0l0 -3667 430 0 0 1532 2037 0 0 -1532 430 0 0 3667 -430 0 0 -1740 -2037 0 0 1740 -430 0zm-3024 -668c227,140 424,240 592,302 166,60 324,90 473,90 232,0 419,-59 561,-179 141,-120 212,-277 212,-473 0,-161 -53,-298 -157,-414 -105,-115 -294,-236 -569,-363l-253 -113c-273,-125 -477,-274 -614,-447 -137,-173 -205,-369 -205,-588 0,-273 99,-497 296,-671 197,-175 452,-262 766,-262 152,0 303,22 453,65 150,43 291,103 422,183l0 468c-157,-119 -309,-206 -457,-263 -147,-58 -293,-86 -438,-86 -194,0 -350,50 -466,150 -118,101 -176,231 -176,394 0,148 53,278 160,391 107,111 283,221 528,329l258 114c284,126 500,284 648,473 147,188 221,402 221,640 0,309 -109,561 -327,757 -219,196 -501,295 -846,295 -165,0 -336,-24 -511,-70 -175,-46 -354,-116 -536,-208l-35 -514zm-2635 668l0 -3667 2012 0 0 367 -1590 0 0 1198 1373 0 0 372 -1373 0 0 1335 1610 0 0 395 -2032 0zm-2842 -1844l372 0c360,0 635,-64 824,-191 189,-127 283,-312 283,-555 0,-249 -93,-432 -280,-547 -188,-115 -488,-173 -901,-173l-298 0 0 1466zm-430 1844l0 -3667 776 0c512,0 902,91 1168,273 267,182 400,447 400,794 0,265 -87,492 -261,680 -173,189 -406,308 -697,357l1333 1563 -549 0 -1280 -1507 -460 0 0 1507 -430 0zm-3884 0l0 -3667 430 0 0 1532 2038 0 0 -1532 429 0 0 3667 -429 0 0 -1740 -2038 0 0 1740 -430 0zm-3024 -668c228,140 425,240 592,302 167,60 325,90 473,90 232,0 420,-59 561,-179 142,-120 212,-277 212,-473 0,-161 -52,-298 -157,-414 -104,-115 -293,-236 -568,-363l-253 -113c-273,-125 -478,-274 -615,-447 -136,-173 -204,-369 -204,-588 0,-273 98,-497 296,-671 196,-175 452,-262 765,-262 152,0 303,22 453,65 150,43 291,103 422,183l0 468c-157,-119 -309,-206 -456,-263 -148,-58 -294,-86 -439,-86 -194,0 -349,50 -466,150 -117,101 -176,231 -176,394 0,148 54,278 161,391 107,111 283,221 527,329l258 114c285,126 501,284 648,473 148,188 221,402 221,640 0,309 -109,561 -327,757 -218,196 -500,295 -846,295 -164,0 -335,-24 -511,-70 -175,-46 -353,-116 -536,-208l-35 -514z"></path> </g> </g> </svg>