<svg xmlns="http://www.w3.org/2000/svg" xmlns:xlink="http://www.w3.org/1999/xlink" id="Layer_1" x="0px" y="0px" viewBox="0 0 64.89 74.67" style="enable-background:new 0 0 64.89 74.67;" xml:space="preserve"> <style type="text/css"> .st0{fill:#3BBC56;} .st1{fill:#F2F2F2;} .st2{clip-path:url(#SVGID_00000143598707552006304110000001255285940465977255_);fill:#31AA3F;} .st3{clip-path:url(#SVGID_00000143598707552006304110000001255285940465977255_);fill:#8DD83D;} .st4{fill:#FBE588;} .st5{fill:none;stroke:#FFFFFF;stroke-width:0.2527;stroke-miterlimit:10;} .st6{opacity:0.2;fill:#0C063F;} .st7{opacity:0.25;fill:#0C063F;} .st8{fill:#FF4C4A;} .st9{fill:#D4F8FA;} .st10{fill:#FF7A7A;} .st11{fill:#FF4B48;} .st12{fill:#4D31D8;} .st13{fill:#00A7B4;} .st14{fill:#0C063F;} .st15{fill:#666DE3;} .st16{fill:#212242;} .st17{fill:#FFC2BD;} .st18{opacity:0.15;fill:#FAFFFC;} .st19{fill:#2DD6DF;} .st20{clip-path:url(#SVGID_00000147219122963832083110000008095317954839273143_);fill:#E6F7FF;} .st21{clip-path:url(#SVGID_00000147219122963832083110000008095317954839273143_);fill:#B3E5FF;} .st22{fill:#4D6D8C;} .st23{fill:#284866;} .st24{fill:#80FFAA;} .st25{fill:#E6F7FF;} .st26{fill:#102840;} .st27{fill:#2EE6A8;} .st28{fill:#B3E5FF;} .st29{fill:#80D4FF;} .st30{fill:#86F1A7;} .st31{fill:#78D0B1;} .st32{fill:#F9F6F9;} .st33{fill:#E2DFE2;} .st34{clip-path:url(#SVGID_00000011726380294936896500000008623562750894801549_);fill:#86F1A7;} .st35{clip-path:url(#SVGID_00000011726380294936896500000008623562750894801549_);} </style> <g> <path class="st30" d="M32.44,66.56c29.51-12.09,28.67-46.09,28.67-46.09C51.84,11.19,32.44,8.1,32.44,8.1S13.05,11.19,3.78,20.47 C3.78,20.47,2.93,54.48,32.44,66.56L32.44,66.56z M32.44,66.56"></path> <path class="st31" d="M32.44,66.56C2.93,54.48,3.78,20.47,3.78,20.47C12.85,11.4,31.61,8.24,32.42,8.11 c-0.63,0.12-12.22,2.43-20.39,8.71c-2.57,1.98-3.95,5.13-3.68,8.37C9.17,34.95,13.18,57.26,32.44,66.56L32.44,66.56z M32.44,66.56"></path> <path class="st32" d="M32.44,59.69C23.32,55.25,16.82,47.73,13.1,37.3c-2.06-5.77-2.73-11.06-2.95-14.08 c6.49-4.98,17.29-7.82,22.28-8.75c4.99,0.94,15.82,3.79,22.3,8.75c-0.22,3.01-0.89,8.31-2.95,14.08 C48.07,47.73,41.57,55.25,32.44,59.69L32.44,59.69z M32.44,59.69"></path> <path class="st33" d="M32.45,59.69c-9.13-4.44-15.63-11.96-19.34-22.4c-2.06-5.77-2.73-11.06-2.95-14.08 c6.49-4.98,17.29-7.82,22.28-8.75c-2.53,0.54-6.77,1.74-10.99,3.62c-5.37,2.41-8.34,8.24-7.13,13.99c0.35,1.65,0.79,3.41,1.34,5.21 C18.89,47.73,24.53,55.25,32.45,59.69L32.45,59.69z M32.45,59.69"></path> <g> <defs> <rect id="SVGID_00000090274402112950006000000001567302269296160946_" x="2.8" y="7.22" width="59.28" height="60.23"></rect> </defs> <clipPath id="SVGID_00000006705227058931132330000003308199886337110953_"> <use xlink:href="#SVGID_00000090274402112950006000000001567302269296160946_" style="overflow:visible;"></use> </clipPath> <path style="clip-path:url(#SVGID_00000006705227058931132330000003308199886337110953_);fill:#86F1A7;" d="M31.84,47.67 c-0.78,0-1.52-0.31-2.08-0.86l-7.39-7.39c-1.15-1.15-1.15-3.01,0-4.16c1.15-1.15,3.01-1.15,4.16,0L31.27,40l8.5-14.04 c0.84-1.39,2.65-1.83,4.04-0.99c1.39,0.84,1.83,2.65,0.99,4.04L34.36,46.25c-0.47,0.77-1.27,1.29-2.16,1.4 C32.08,47.66,31.96,47.67,31.84,47.67L31.84,47.67z M31.84,47.67"></path> <path style="clip-path:url(#SVGID_00000006705227058931132330000003308199886337110953_);" d="M32.44,67.45 c-0.11,0-0.23-0.02-0.33-0.07c-6.87-2.81-12.68-7.03-17.27-12.55c-3.67-4.41-6.57-9.64-8.63-15.55 C2.72,29.22,2.89,20.8,2.89,20.45c0.01-0.23,0.1-0.44,0.26-0.6c3.95-3.95,10.06-7.27,18.17-9.88c6-1.93,10.79-2.7,10.99-2.74 c0.09-0.01,0.19-0.01,0.28,0c0.2,0.03,4.98,0.81,10.99,2.74c8.11,2.61,14.22,5.93,18.17,9.88c0.16,0.16,0.25,0.38,0.26,0.6 c0.01,0.23,0.12,5.71-1.65,13.11c-1.04,4.35-2.51,8.45-4.39,12.19c-2.35,4.69-5.33,8.83-8.86,12.29 c-0.35,0.34-0.91,0.34-1.25-0.01c-0.34-0.35-0.34-0.91,0.01-1.25c3.39-3.32,6.25-7.29,8.51-11.8c1.81-3.61,3.24-7.58,4.25-11.79 c1.48-6.15,1.61-11.04,1.61-12.36C51.58,12.47,34.18,9.3,32.44,9c-1.74,0.3-19.14,3.47-27.79,11.84 c0.01,1.69,0.23,9.28,3.24,17.91c1.99,5.7,4.79,10.74,8.32,14.97c4.33,5.19,9.79,9.19,16.23,11.88c4.01-1.68,7.66-3.87,10.86-6.52 c0.37-0.31,0.93-0.26,1.24,0.12c0.31,0.38,0.26,0.93-0.12,1.24c-3.42,2.84-7.34,5.17-11.65,6.93 C32.67,67.42,32.56,67.45,32.44,67.45L32.44,67.45z M32.44,67.45"></path> </g> <path d="M32.44,60.57c-0.13,0-0.26-0.03-0.39-0.09c-9.34-4.55-15.99-12.25-19.79-22.89c-2.03-5.7-2.75-10.93-3-14.31 c-0.02-0.3,0.11-0.58,0.34-0.76c2.05-1.57,4.67-3.05,7.78-4.4c0.45-0.19,0.97,0.01,1.16,0.46c0.19,0.45-0.01,0.97-0.46,1.16 c-2.79,1.21-5.15,2.52-7.03,3.9c0.23,2.81,0.91,7.89,2.86,13.37c3.58,10.05,9.81,17.35,18.51,21.71 c8.7-4.36,14.93-11.66,18.51-21.71c1.87-5.25,2.59-10.09,2.86-13.37c-2.74-2.01-6.47-3.85-11.08-5.46 c-4.66-1.63-8.65-2.49-10.3-2.8c-1.51,0.29-6.05,1.24-11.12,3.09c-0.46,0.17-0.96-0.07-1.13-0.53c-0.17-0.46,0.07-0.96,0.53-1.13 c5.4-1.97,10.22-2.94,11.57-3.2c0.11-0.02,0.22-0.02,0.32,0c1.49,0.28,14.83,2.91,22.67,8.91c0.24,0.18,0.37,0.47,0.34,0.77 c-0.25,3.38-0.97,8.61-3,14.31c-3.79,10.64-10.45,18.35-19.79,22.89C32.71,60.54,32.58,60.57,32.44,60.57L32.44,60.57z M32.44,60.57"></path> <path d="M31.84,48.55c-1.02,0-1.98-0.4-2.7-1.12l-7.39-7.39c-1.49-1.49-1.49-3.92,0-5.41c1.49-1.49,3.92-1.49,5.41,0l3.95,3.94 l7.92-13.08c1.09-1.8,3.45-2.38,5.25-1.29c0.87,0.53,1.49,1.37,1.73,2.36c0.24,0.99,0.09,2.02-0.44,2.89L35.11,46.71 c-0.61,1.01-1.64,1.67-2.81,1.82C32.15,48.54,31.99,48.55,31.84,48.55L31.84,48.55z M24.45,35.28c-0.53,0-1.05,0.2-1.46,0.6 c-0.8,0.8-0.8,2.11,0,2.91l7.39,7.39c0.39,0.39,0.91,0.6,1.46,0.6c0.08,0,0.17,0,0.25-0.01c0.63-0.08,1.18-0.43,1.51-0.98 l10.44-17.25c0.28-0.47,0.37-1.02,0.24-1.56c-0.13-0.53-0.46-0.99-0.93-1.27c-0.97-0.59-2.24-0.28-2.83,0.69l-8.5,14.04 c-0.14,0.23-0.38,0.39-0.65,0.42c-0.27,0.03-0.54-0.06-0.73-0.25l-4.74-4.74C25.5,35.48,24.97,35.28,24.45,35.28L24.45,35.28z M24.45,35.28"></path> </g> </svg>