<svg xmlns="http://www.w3.org/2000/svg" xmlns:xlink="http://www.w3.org/1999/xlink" id="Layer_1" x="0px" y="0px" viewBox="0 0 64.89 74.67" style="enable-background:new 0 0 64.89 74.67;" xml:space="preserve"> <style type="text/css"> .st0{fill:#3BBC56;} .st1{fill:#F2F2F2;} .st2{clip-path:url(#SVGID_00000025408700941059393540000000767539565616525226_);fill:#31AA3F;} .st3{clip-path:url(#SVGID_00000025408700941059393540000000767539565616525226_);fill:#8DD83D;} .st4{fill:#FBE588;} .st5{fill:none;stroke:#FFFFFF;stroke-width:0.2527;stroke-miterlimit:10;} .st6{opacity:0.2;fill:#0C063F;} .st7{opacity:0.25;fill:#0C063F;} .st8{fill:#FF4C4A;} .st9{fill:#D4F8FA;} .st10{fill:#FF7A7A;} .st11{fill:#FF4B48;} .st12{fill:#4D31D8;} .st13{fill:#00A7B4;} .st14{fill:#0C063F;} .st15{fill:#666DE3;} .st16{fill:#212242;} .st17{fill:#FFC2BD;} .st18{opacity:0.15;fill:#FAFFFC;} .st19{fill:#2DD6DF;} .st20{clip-path:url(#SVGID_00000121248509451452789670000006314393215534896299_);fill:#E6F7FF;} .st21{clip-path:url(#SVGID_00000121248509451452789670000006314393215534896299_);fill:#B3E5FF;} .st22{fill:#4D6D8C;} .st23{fill:#284866;} .st24{fill:#80FFAA;} .st25{fill:#E6F7FF;} .st26{fill:#102840;} .st27{fill:#2EE6A8;} .st28{fill:#B3E5FF;} .st29{fill:#80D4FF;} .st30{fill:#86F1A7;} .st31{fill:#78D0B1;} .st32{fill:#F9F6F9;} .st33{fill:#E2DFE2;} .st34{clip-path:url(#SVGID_00000072990313193859570910000002703836026973393799_);fill:#86F1A7;} .st35{clip-path:url(#SVGID_00000072990313193859570910000002703836026973393799_);} .st36{fill:#DD636E;} </style> <g> <path class="st36" d="M47.32,25.23c0,1.67-0.03,3.21,0.03,4.76c0.01,0.24,0.32,0.56,0.57,0.69c1.34,0.72,2.68,1.43,4.06,2.05 c0.89,0.4,1.23,0.93,1.22,1.94c-0.05,6.86-0.02,13.72-0.04,20.58c0,0.62,0.09,1.03,0.73,1.35c1,0.5,1.42,1.76,1.1,2.83 c-0.3,1.03-1.29,1.76-2.39,1.77c-1.09,0.01-2.11-0.72-2.42-1.73c-0.33-1.08,0.05-2.31,1.07-2.84c0.66-0.35,0.77-0.78,0.76-1.44 c-0.02-6.71-0.03-13.42,0.01-20.12c0-0.79-0.26-1.2-0.95-1.51c-1.21-0.55-2.37-1.18-3.69-1.84c-0.03,0.38-0.07,0.63-0.07,0.88 c0,6.77,0,13.54,0,20.3c0,2.26-1.22,3.51-3.47,3.51c-7.62,0-15.23,0-22.85-0.01c-2.19,0-3.42-1.24-3.42-3.46 c-0.01-6.68,0-13.35,0-20.03c0-0.35,0-0.71,0-1.24c-1.56,0.79-2.96,1.48-4.34,2.22c-0.19,0.1-0.32,0.5-0.32,0.76 c-0.02,6.98-0.02,13.96,0.01,20.94c0,0.3,0.28,0.7,0.55,0.87c1.08,0.71,1.58,1.81,1.24,2.96c-0.3,1.03-1.3,1.76-2.39,1.77 c-1.14,0-2.15-0.75-2.44-1.83c-0.3-1.12,0.14-2.29,1.24-2.85c0.57-0.29,0.6-0.65,0.6-1.16c-0.01-6.98,0.01-13.96-0.02-20.94 c0-0.77,0.22-1.22,0.93-1.55c1.43-0.66,2.81-1.43,4.24-2.11c0.5-0.24,0.72-0.53,0.71-1.1c-0.04-1.45-0.01-2.9-0.01-4.52 c-1.38,0.7-2.62,1.32-3.85,1.95c-2.06,1.04-4.1,2.1-6.17,3.11c-0.48,0.24-0.64,0.53-0.64,1.05c0.02,5.22,0.02,10.44,0,15.66 c0,0.53,0.19,0.79,0.65,1.04c1.08,0.58,1.51,1.72,1.19,2.87c-0.28,1.05-1.32,1.8-2.47,1.79c-1.07-0.01-2.04-0.76-2.35-1.82 c-0.32-1.1,0.13-2.28,1.23-2.85c0.55-0.28,0.61-0.64,0.61-1.16c-0.01-5.28,0.01-10.56-0.03-15.84c-0.01-0.82,0.27-1.24,1-1.6 c3.37-1.67,6.71-3.4,10.07-5.08c0.56-0.28,0.79-0.59,0.78-1.24c-0.04-2.06-0.02-4.13-0.01-6.19c0.01-2.12,1.22-3.34,3.33-3.34 c7.68-0.01,15.36-0.01,23.03,0c2.16,0,3.36,1.22,3.37,3.39c0.01,1.97,0.04,3.95-0.01,5.92c-0.02,0.76,0.19,1.18,0.91,1.53 c3.35,1.64,6.65,3.37,9.99,5.03c0.68,0.34,0.96,0.76,0.95,1.54c-0.04,5.28-0.02,10.56-0.03,15.84c0,0.55,0.08,0.92,0.66,1.22 c1.07,0.55,1.5,1.75,1.16,2.88c-0.31,1.04-1.29,1.77-2.38,1.77c-1.15,0-2.14-0.76-2.42-1.84c-0.3-1.17,0.14-2.3,1.23-2.84 c0.51-0.25,0.61-0.55,0.61-1.05c-0.01-5.22,0-10.44-0.03-15.66c0-0.32-0.22-0.79-0.48-0.92c-3.2-1.66-6.43-3.28-9.65-4.91 C47.73,25.34,47.61,25.32,47.32,25.23z M46.1,21.16c-9.13,0-18.2,0-27.27,0c0,8.89,0,17.7,0,26.53c9.12,0,18.18,0,27.27,0 C46.1,38.81,46.1,30,46.1,21.16z M18.75,48.95c0,1.36,0,2.63,0,3.9c0,1.79,0.6,2.38,2.4,2.38c7.43,0,14.85,0,22.28,0 c0.36,0,0.73,0.02,1.09-0.03c0.83-0.12,1.5-0.59,1.55-1.42c0.1-1.59,0.03-3.19,0.03-4.83C36.97,48.95,27.92,48.95,18.75,48.95z M18.78,19.85c9.18,0,18.23,0,27.37,0c0-0.97,0-1.87,0-2.77c0-1.9-0.61-2.5-2.51-2.5c-6.16,0-12.31,0-18.47,0 c-1.46,0-2.91-0.01-4.37,0.01c-1.12,0.02-1.94,0.61-2.01,1.58C18.71,17.37,18.78,18.58,18.78,19.85z M13.69,58.69 c-0.01-0.75-0.67-1.37-1.41-1.34c-0.73,0.03-1.32,0.62-1.32,1.33c-0.01,0.76,0.62,1.41,1.35,1.4 C13.05,60.06,13.7,59.41,13.69,58.69z M53.95,58.68c-0.02-0.76-0.65-1.36-1.41-1.33c-0.76,0.02-1.35,0.67-1.32,1.43 c0.03,0.69,0.67,1.29,1.38,1.3C53.34,60.08,53.96,59.43,53.95,58.68z M59.92,50.11c0.01-0.72-0.6-1.33-1.32-1.36 c-0.79-0.02-1.4,0.55-1.41,1.34c-0.01,0.76,0.63,1.39,1.4,1.37C59.3,51.46,59.92,50.83,59.92,50.11z M6.33,51.47 c0.77,0.01,1.39-0.63,1.37-1.39c-0.02-0.74-0.6-1.31-1.35-1.32c-0.74-0.01-1.35,0.56-1.39,1.29C4.94,50.78,5.59,51.46,6.33,51.47z"></path> <path class="st36" d="M37.72,27.43c0,0.48,0.06,0.83-0.02,1.14c-0.06,0.21-0.32,0.48-0.5,0.49c-0.18,0-0.43-0.26-0.53-0.46 c-0.11-0.23-0.07-0.53-0.13-0.8c-0.39-1.99-2.04-3.39-4.03-3.41c-2.05-0.02-3.7,1.35-4.16,3.38c-0.11,0.46,0.18,1.32-0.63,1.29 c-0.91-0.03-0.4-0.9-0.56-1.38c-0.01-0.03-0.02-0.06-0.08-0.18c-1.24,0.62-2.49,1.22-3.71,1.88c-0.17,0.09-0.27,0.46-0.27,0.7 c-0.02,3.37-0.03,6.73,0.02,10.1c0,0.29,0.33,0.66,0.61,0.84c1.03,0.68,1.5,1.77,1.18,2.9c-0.31,1.08-1.32,1.82-2.45,1.8 c-1.12-0.02-2.09-0.77-2.35-1.8c-0.31-1.24,0.12-2.32,1.27-2.9c0.47-0.24,0.56-0.53,0.56-0.99c-0.01-3.4,0.02-6.8-0.02-10.19 c-0.01-0.75,0.23-1.17,0.9-1.48c0.94-0.42,1.85-0.91,2.76-1.39c1.2-0.62,2.34-1.26,3.33-2.27c2.11-2.15,5.58-1.85,7.62,0.42 c0.43,0.48,0.98,0.89,1.55,1.2c1.35,0.75,2.74,1.44,4.13,2.1c0.62,0.29,0.8,0.69,0.8,1.35c-0.03,3.37,0,6.73-0.02,10.1 c0,0.56,0.09,0.91,0.67,1.2c1.08,0.54,1.49,1.7,1.16,2.87c-0.29,1.02-1.29,1.78-2.38,1.78c-1.14,0.01-2.11-0.73-2.43-1.83 c-0.31-1.07,0.12-2.24,1.15-2.8c0.53-0.29,0.7-0.61,0.69-1.2c-0.03-3.15-0.05-6.31,0-9.46c0.01-0.72-0.22-1.09-0.87-1.38 C39.9,28.56,38.87,28,37.72,27.43z M22.47,44.55c0.76,0.02,1.41-0.62,1.4-1.38c-0.01-0.72-0.61-1.31-1.35-1.33 c-0.75-0.02-1.34,0.53-1.38,1.27C21.09,43.88,21.7,44.54,22.47,44.55z M42.38,41.85c-0.75,0.01-1.34,0.6-1.34,1.32 c0,0.76,0.63,1.38,1.4,1.37c0.77-0.01,1.36-0.65,1.32-1.43C43.72,42.37,43.14,41.83,42.38,41.85z"></path> <path class="st36" d="M32.51,30.16c2.03,0,4.06,0.02,6.09-0.01c0.78-0.01,1.09,0.29,1.06,1.08c-0.05,2,0.07,4.01-0.1,6 c-0.35,3.96-3.55,6.67-7.49,6.5c-3.75-0.16-6.7-3.19-6.82-7.06c-0.05-1.85,0-3.7-0.02-5.55c-0.01-0.71,0.31-0.97,0.99-0.96 C28.32,30.18,30.42,30.17,32.51,30.16C32.51,30.17,32.51,30.17,32.51,30.16z M26.46,31.35c0,2.09-0.17,4.14,0.04,6.14 c0.31,2.9,2.87,5.05,5.73,5.14c2.91,0.09,5.64-1.86,6.04-4.73c0.3-2.13,0.06-4.33,0.06-6.55C34.44,31.35,30.51,31.35,26.46,31.35z"></path> <path class="st36" d="M32.43,50.09c1.19,0,2.15,0.93,2.17,2.11c0.02,1.14-0.97,2.15-2.13,2.17c-1.15,0.02-2.16-0.98-2.17-2.13 C30.29,51.07,31.26,50.09,32.43,50.09z M33.57,52.44c0-0.14,0-0.28,0.01-0.41c-0.36-0.27-0.7-0.71-1.1-0.77 c-0.6-0.09-1,0.33-0.99,1c0.01,0.62,0.4,1.01,0.97,0.91C32.85,53.09,33.2,52.7,33.57,52.44z"></path> <path class="st36" d="M32.4,17.49c-0.79,0-1.58,0.05-2.36-0.02c-0.31-0.03-0.59-0.34-0.88-0.52c0.28-0.19,0.56-0.53,0.84-0.54 c1.63-0.05,3.27-0.05,4.9,0c0.29,0.01,0.56,0.36,0.85,0.55c-0.27,0.18-0.53,0.48-0.81,0.5C34.1,17.53,33.25,17.49,32.4,17.49 C32.4,17.49,32.4,17.49,32.4,17.49z"></path> <path class="st36" d="M34.82,35.46c-0.37,0.55-0.63,1.26-1.14,1.61c-0.57,0.4-0.74,0.79-0.69,1.41c0.03,0.39,0.07,0.8-0.03,1.18 c-0.06,0.22-0.35,0.39-0.54,0.58c-0.18-0.2-0.41-0.38-0.51-0.62c-0.09-0.21-0.04-0.48-0.02-0.72c0.07-0.82-0.02-1.47-0.88-1.96 c-0.82-0.46-0.96-1.76-0.5-2.63c0.46-0.89,1.49-1.36,2.46-1.12C33.93,33.43,34.62,34.32,34.82,35.46z M31.25,35.11 c0,0.14,0,0.28,0,0.42c0.39,0.29,0.75,0.76,1.17,0.82c0.63,0.09,1.08-0.37,1.06-1.05c-0.02-0.63-0.44-1.08-1.04-0.98 C32.01,34.39,31.65,34.83,31.25,35.11z"></path> </g> </svg>